<mxfile host="" modified="2021-01-28T12:22:53.821Z" agent="5.0 (Windows NT 6.2; Win64; x64) AppleWebKit/537.36 (KHTML, like Gecko) Chrome/84.0.4147.105 Safari/537.36" version="13.7.9" etag="N3Eb5RwvScXfGQdJCTRo" type="embed"><diagram id="O8FNWGS9hDB0b1hOmVu-" name="Page-1"><mxGraphModel dx="1187" dy="1119" grid="1" gridSize="10" guides="1" tooltips="1" connect="1" arrows="1" fold="1" page="1" pageScale="1" pageWidth="850" pageHeight="1100" math="0" shadow="0"><root><mxCell id="0"/><mxCell id="1" parent="0"/><mxCell id="2" value="" style="whiteSpace=wrap;html=1;fillColor=none;dashed=1;align=left;" vertex="1" parent="1"><mxGeometry x="40" y="60" width="520" height="100" as="geometry"/></mxCell><mxCell id="3" value="" style="whiteSpace=wrap;html=1;fillColor=none;dashed=1;" vertex="1" parent="1"><mxGeometry x="40" y="180" width="520" height="100" as="geometry"/></mxCell><mxCell id="4" value="" style="whiteSpace=wrap;html=1;fillColor=none;dashed=1;" vertex="1" parent="1"><mxGeometry x="40" y="300" width="520" height="100" as="geometry"/></mxCell><mxCell id="5" value="Kraken_manager" style="whiteSpace=wrap;html=1;" vertex="1" parent="1"><mxGeometry x="80" y="320" width="120" height="60" as="geometry"/></mxCell><mxCell id="6" value="ORM" style="whiteSpace=wrap;html=1;" vertex="1" parent="1"><mxGeometry x="240" y="320" width="120" height="60" as="geometry"/></mxCell><mxCell id="7" value="Telegram_manager" style="whiteSpace=wrap;html=1;" vertex="1" parent="1"><mxGeometry x="400" y="320" width="120" height="60" as="geometry"/></mxCell><mxCell id="8" style="edgeStyle=orthogonalEdgeStyle;orthogonalLoop=1;jettySize=auto;html=1;exitX=0.5;exitY=1;exitDx=0;exitDy=0;entryX=0.5;entryY=0;entryDx=0;entryDy=0;fontSize=14;" edge="1" parent="1" source="11" target="5"><mxGeometry relative="1" as="geometry"/></mxCell><mxCell id="9" style="edgeStyle=orthogonalEdgeStyle;orthogonalLoop=1;jettySize=auto;html=1;exitX=0.5;exitY=1;exitDx=0;exitDy=0;entryX=0.5;entryY=0;entryDx=0;entryDy=0;fontSize=14;" edge="1" parent="1" source="11" target="6"><mxGeometry relative="1" as="geometry"/></mxCell><mxCell id="10" style="edgeStyle=orthogonalEdgeStyle;orthogonalLoop=1;jettySize=auto;html=1;exitX=0.5;exitY=1;exitDx=0;exitDy=0;entryX=0.5;entryY=0;entryDx=0;entryDy=0;fontSize=14;" edge="1" parent="1" source="11" target="7"><mxGeometry relative="1" as="geometry"/></mxCell><mxCell id="11" value="Kraken_bot" style="whiteSpace=wrap;html=1;" vertex="1" parent="1"><mxGeometry x="160" y="200" width="120" height="60" as="geometry"/></mxCell><mxCell id="12" style="edgeStyle=orthogonalEdgeStyle;orthogonalLoop=1;jettySize=auto;html=1;exitX=0.5;exitY=1;exitDx=0;exitDy=0;entryX=0.5;entryY=0;entryDx=0;entryDy=0;fontSize=14;" edge="1" parent="1" source="17" target="6"><mxGeometry relative="1" as="geometry"/></mxCell><mxCell id="13" style="edgeStyle=orthogonalEdgeStyle;orthogonalLoop=1;jettySize=auto;html=1;exitX=0.5;exitY=1;exitDx=0;exitDy=0;entryX=0.5;entryY=0;entryDx=0;entryDy=0;" edge="1" parent="1" source="17" target="6"><mxGeometry relative="1" as="geometry"/></mxCell><mxCell id="14" style="edgeStyle=orthogonalEdgeStyle;orthogonalLoop=1;jettySize=auto;html=1;exitX=0.5;exitY=1;exitDx=0;exitDy=0;entryX=0.5;entryY=0;entryDx=0;entryDy=0;" edge="1" parent="1" source="17" target="6"><mxGeometry relative="1" as="geometry"/></mxCell><mxCell id="15" style="edgeStyle=orthogonalEdgeStyle;orthogonalLoop=1;jettySize=auto;html=1;exitX=0.5;exitY=1;exitDx=0;exitDy=0;" edge="1" parent="1" source="17"><mxGeometry relative="1" as="geometry"><mxPoint x="460" y="320" as="targetPoint"/></mxGeometry></mxCell><mxCell id="16" style="edgeStyle=orthogonalEdgeStyle;orthogonalLoop=1;jettySize=auto;html=1;exitX=0.5;exitY=1;exitDx=0;exitDy=0;entryX=0.5;entryY=0;entryDx=0;entryDy=0;" edge="1" parent="1" source="17" target="5"><mxGeometry relative="1" as="geometry"/></mxCell><mxCell id="17" value="Telegram_bot" style="whiteSpace=wrap;html=1;" vertex="1" parent="1"><mxGeometry x="320" y="200" width="120" height="60" as="geometry"/></mxCell><mxCell id="18" style="edgeStyle=orthogonalEdgeStyle;orthogonalLoop=1;jettySize=auto;html=1;exitX=0.5;exitY=1;exitDx=0;exitDy=0;entryX=0.5;entryY=0;entryDx=0;entryDy=0;fontSize=14;" edge="1" parent="1" source="20" target="11"><mxGeometry relative="1" as="geometry"/></mxCell><mxCell id="19" style="edgeStyle=orthogonalEdgeStyle;orthogonalLoop=1;jettySize=auto;html=1;exitX=0.5;exitY=1;exitDx=0;exitDy=0;entryX=0.5;entryY=0;entryDx=0;entryDy=0;fontSize=14;" edge="1" parent="1" source="20" target="17"><mxGeometry relative="1" as="geometry"/></mxCell><mxCell id="20" value="Main" style="whiteSpace=wrap;html=1;" vertex="1" parent="1"><mxGeometry x="240" y="80" width="120" height="60" as="geometry"/></mxCell><mxCell id="22" value="Initiator" style="text;html=1;align=left;verticalAlign=middle;resizable=0;points=[];autosize=1;fontSize=14;" vertex="1" parent="1"><mxGeometry x="40" y="40" width="60" height="20" as="geometry"/></mxCell><mxCell id="23" value="Processes" style="text;html=1;align=left;verticalAlign=middle;resizable=0;points=[];autosize=1;fontSize=14;" vertex="1" parent="1"><mxGeometry x="40" y="160" width="80" height="20" as="geometry"/></mxCell><mxCell id="24" value="API" style="text;html=1;align=left;verticalAlign=middle;resizable=0;points=[];autosize=1;fontSize=14;" vertex="1" parent="1"><mxGeometry x="40" y="280" width="40" height="20" as="geometry"/></mxCell></root></mxGraphModel></diagram></mxfile>